<svg xmlns="http://www.w3.org/2000/svg" width="1200" height="630" viewBox="0 0 1200 630" role="img" aria-labelledby="title desc">
  <title id="title">Finance OS for Dropshippers and Digital Ads</title>
  <desc id="desc">Spot wasted ad spend and protect product margin.</desc>
  <defs>
    <linearGradient id="bg" x1="0" y1="0" x2="1" y2="1">
      <stop offset="0" stop-color="#0B0F19"/>
      <stop offset="0.58" stop-color="#111827"/>
      <stop offset="1" stop-color="#1F2937"/>
    </linearGradient>
    <radialGradient id="glow" cx="0.75" cy="0.24" r="0.7">
      <stop offset="0" stop-color="#EA580C" stop-opacity="0.38"/>
      <stop offset="0.48" stop-color="#7C3AED" stop-opacity="0.18"/>
      <stop offset="1" stop-color="#0B0F19" stop-opacity="0"/>
    </radialGradient>
    <pattern id="grid" width="44" height="44" patternUnits="userSpaceOnUse">
      <path d="M 44 0 L 0 0 0 44" fill="none" stroke="#FFFFFF" stroke-opacity="0.055" stroke-width="1"/>
    </pattern>
  </defs>
  <rect width="1200" height="630" fill="url(#bg)"/>
  <rect width="1200" height="630" fill="url(#glow)"/>
  <rect width="1200" height="630" fill="url(#grid)"/>
  <circle cx="1006" cy="128" r="220" fill="#EA580C" opacity="0.13"/>
  <circle cx="1100" cy="510" r="190" fill="#7C3AED" opacity="0.12"/>
  <g transform="translate(84 110)">
    <rect x="0" y="0" width="58" height="58" rx="12" fill="#FFFFFF"/>
    <g transform="translate(2 0)">
      <path d="M 10 9 L 48 9 L 39 18 L 19 18 L 19 49 L 10 49 Z" fill="#0B0F19"/>
      <path d="M 25 27 L 39 27 L 30 36 L 25 36 Z" fill="#0B0F19"/>
    </g>
    <text x="78" y="39" fill="#FFFFFF" font-family="Inter, Arial, sans-serif" font-size="32" font-weight="800" letter-spacing="0">FluxyOS</text>
  </g>
  <g transform="translate(84 226)">
    <text x="0" y="0" fill="#FDBA74" font-family="Inter, Arial, sans-serif" font-size="22" font-weight="800" letter-spacing="3">DROPSHIPPERS &amp; DIGITAL ADS</text>
    <text x="0" y="84" fill="#FFFFFF" font-family="Inter, Arial, sans-serif" font-size="54" font-weight="850" letter-spacing="0">Spot wasted ads</text>
    <text x="0" y="150" fill="#FFFFFF" font-family="Inter, Arial, sans-serif" font-size="54" font-weight="850" letter-spacing="0">before they drain cash</text>
    <text x="0" y="232" fill="#D1D5DB" font-family="Inter, Arial, sans-serif" font-size="25" font-weight="500" letter-spacing="0">Track ad spend, supplier cost, COD returns,</text>
    <text x="0" y="268" fill="#D1D5DB" font-family="Inter, Arial, sans-serif" font-size="25" font-weight="500" letter-spacing="0">payouts, and real product margin.</text>
  </g>
  <g transform="translate(842 220)" opacity="0.96">
    <rect x="0" y="0" width="286" height="286" rx="24" fill="#FFFFFF" fill-opacity="0.08" stroke="#FFFFFF" stroke-opacity="0.18"/>
    <rect x="30" y="34" width="226" height="22" rx="11" fill="#FFFFFF" fill-opacity="0.72"/>
    <g transform="translate(30 82)">
      <rect x="0" y="0" width="226" height="54" rx="15" fill="#FFFFFF" fill-opacity="0.13"/>
      <circle cx="26" cy="27" r="15" fill="#22C55E" fill-opacity="0.85"/>
      <rect x="54" y="17" width="118" height="11" rx="5.5" fill="#FFFFFF" fill-opacity="0.36"/>
      <rect x="54" y="34" width="152" height="8" rx="4" fill="#FFFFFF" fill-opacity="0.18"/>
    </g>
    <g transform="translate(30 152)">
      <rect x="0" y="0" width="226" height="54" rx="15" fill="#FFFFFF" fill-opacity="0.13"/>
      <circle cx="26" cy="27" r="15" fill="#EA580C" fill-opacity="0.9"/>
      <rect x="54" y="17" width="142" height="11" rx="5.5" fill="#FFFFFF" fill-opacity="0.36"/>
      <rect x="54" y="34" width="118" height="8" rx="4" fill="#FFFFFF" fill-opacity="0.18"/>
    </g>
    <g transform="translate(30 222)">
      <rect x="0" y="0" width="226" height="28" rx="14" fill="#FFFFFF" fill-opacity="0.72"/>
      <rect x="12" y="10" width="128" height="8" rx="4" fill="#0B0F19" fill-opacity="0.55"/>
      <rect x="168" y="10" width="44" height="8" rx="4" fill="#EA580C" fill-opacity="0.92"/>
    </g>
  </g>
  <text x="84" y="574" fill="#9CA3AF" font-family="Inter, Arial, sans-serif" font-size="22" font-weight="600" letter-spacing="0">https://fluxyos.com/use-cases/dropshippers-digital-ads</text>
</svg>
