<svg xmlns="http://www.w3.org/2000/svg" width="1200" height="630" viewBox="0 0 1200 630"><rect width="1200" height="630" fill="#F8FAFC"/><circle cx="140" cy="90" r="180" fill="#EA580C" opacity="0.12"/><rect x="78" y="74" width="1044" height="482" rx="44" fill="#fff" stroke="#E5E7EB" stroke-width="2"/><rect x="122" y="118" width="74" height="74" rx="16" fill="#0B0F19"/><path d="M140 135h38l-10 10h-18v30h-10zM158 155h17l-10 10h-7z" fill="#fff"/><text x="220" y="157" font-family="Inter, Arial, sans-serif" font-size="34" font-weight="700" fill="#0B0F19">FluxyOS</text><text x="122" y="282" font-family="Inter, Arial, sans-serif" font-size="62" font-weight="700" fill="#0B0F19">Finance OS for</text><text x="122" y="354" font-family="Inter, Arial, sans-serif" font-size="62" font-weight="700" fill="#0B0F19">Founders &amp; CEOs</text><text x="124" y="418" font-family="Inter, Arial, sans-serif" font-size="27" fill="#4B5563">See business economics, cash pressure, and finance risks before month-end.</text><rect x="817" y="137" width="236" height="84" rx="22" fill="#F8FAFC" stroke="#E5E7EB"/><text x="841" y="171" font-family="Inter, Arial, sans-serif" font-size="18" fill="#6B7280">Revenue</text><text x="841" y="204" font-family="Fira Code, monospace" font-size="28" font-weight="700" fill="#0B0F19">Rp 428M</text><rect x="817" y="245" width="236" height="84" rx="22" fill="#fff" stroke="#EA580C" stroke-opacity="0.35"/><text x="841" y="279" font-family="Inter, Arial, sans-serif" font-size="18" fill="#6B7280">OpEx pressure</text><text x="841" y="312" font-family="Fira Code, monospace" font-size="28" font-weight="700" fill="#EA580C">Rp 216M</text><rect x="817" y="353" width="236" height="108" rx="22" fill="#0B0F19"/><text x="841" y="389" font-family="Inter, Arial, sans-serif" font-size="18" fill="#D1D5DB">Fluxy AI insight</text><text x="841" y="423" font-family="Inter, Arial, sans-serif" font-size="23" font-weight="700" fill="#fff">What changed?</text><circle cx="1012" cy="178" r="7" fill="#EA580C"/></svg>