<svg xmlns="http://www.w3.org/2000/svg" width="1200" height="630" viewBox="0 0 1200 630">
<rect width="1200" height="630" fill="#fff"/><rect x="672" y="40" width="488" height="550" rx="16" fill="#f3f4f6"/>
<g font-family="Inter, Arial, sans-serif" fill="#0b0f19"><text x="64" y="92" font-size="30" font-weight="600">FluxyOS</text><text x="64" y="238" font-size="60" letter-spacing="-2">Every invoice.</text><text x="64" y="309" font-size="60" letter-spacing="-2">Less busywork.</text><text x="64" y="373" font-size="22" fill="#6b7280">Create. Send. Scan. Track.</text><text x="64" y="539" font-size="18">FluxyOS Invoice</text><path d="M64 491h48" stroke="#ea580c" stroke-width="3"/>
<rect x="724" y="88" width="384" height="356" rx="9" fill="#fff" stroke="#e5e7eb"/><text x="748" y="126" font-size="16" font-weight="600">Nusa Studio</text><text x="748" y="151" font-size="12" fill="#6b7280">INV-2026-084</text><text x="748" y="205" font-size="12" fill="#6b7280">Bill to</text><text x="748" y="230" font-size="16">Ruang Karya</text><path d="M748 260h336M748 309h336M748 358h336" stroke="#e5e7eb"/><text x="748" y="288" font-size="13">Design services</text><text x="1084" y="288" font-size="13" text-anchor="end">Rp4.000.000</text><text x="748" y="338" font-size="13">Production support</text><text x="1084" y="338" font-size="13" text-anchor="end">Rp800.000</text><text x="748" y="392" font-size="14">Total due</text><text x="1084" y="392" font-size="20" font-weight="600" text-anchor="end">Rp4.800.000</text>
<path d="M724 251h384" stroke="#ea580c" stroke-width="2"/><rect x="708" y="420" width="416" height="132" rx="9" fill="#fff" stroke="#d1d5db"/><path d="m732 449 5 5 10-12" fill="none" stroke="#16a34a" stroke-width="2"/><text x="760" y="455" font-size="15">Details ready to review</text><text x="732" y="495" font-size="12" fill="#6b7280">Vendor</text><text x="1098" y="495" font-size="12" text-anchor="end">Nusa Studio</text><text x="732" y="525" font-size="12" fill="#6b7280">Amount</text><text x="1098" y="525" font-size="12" text-anchor="end">Rp4.800.000</text></g></svg>
