<svg xmlns="http://www.w3.org/2000/svg" width="1200" height="630" viewBox="0 0 1200 630">
  <rect width="1200" height="630" fill="#fff"/>
  <rect x="646" y="40" width="514" height="550" rx="12" fill="#f9fafb"/>
  <g font-family="Inter, Arial, sans-serif" fill="#0b0f19">
    <rect x="64" y="58" width="32" height="32" rx="8" fill="#0b0f19"/>
    <path d="M75 81V67h12v3h-9v3h7v3h-7v5" fill="#fff"/>
    <text x="108" y="83" font-size="26" font-weight="500">FluxyOS</text>
    <text x="64" y="245" font-size="56" font-weight="300" letter-spacing="-2">A receipt in.</text>
    <text x="64" y="310" font-size="56" font-weight="300" letter-spacing="-2">An expense ready.</text>
    <text x="64" y="378" font-size="20" fill="#6b7280">Capture. Read. Review. Record.</text>
    <path d="M64 485h48" stroke="#ea580c" stroke-width="3"/>
    <text x="64" y="531" font-size="18">Receipt Capture</text>
    <rect x="680" y="122" width="222" height="370" rx="3" fill="#fff" stroke="#e5e7eb"/>
    <text x="791" y="166" text-anchor="middle" font-size="19" font-weight="500">Kopi Ruang</text>
    <text x="791" y="194" text-anchor="middle" font-size="12" fill="#6b7280">14 Sep 2026 · KR-084</text>
    <path d="M699 216h184M699 373h184" stroke="#d1d5db" stroke-dasharray="3 3"/>
    <text x="699" y="252" font-size="12">Coffee · 5 ×</text><text x="883" y="252" text-anchor="end" font-size="12">Rp125.000</text>
    <text x="699" y="288" font-size="12">Pastries · 5 ×</text><text x="883" y="288" text-anchor="end" font-size="12">Rp125.000</text>
    <text x="699" y="341" font-size="12">Tax</text><text x="883" y="341" text-anchor="end" font-size="12">Rp27.500</text>
    <text x="699" y="409" font-size="13">TOTAL</text><text x="883" y="409" text-anchor="end" font-size="16" font-weight="500">Rp277.500</text>
    <text x="791" y="455" text-anchor="middle" font-size="11" fill="#6b7280">Paid by bank card</text>
    <path d="M685 308h212" stroke="#ea580c" stroke-width="2"/>
    <rect x="923" y="152" width="213" height="326" rx="8" fill="#fff" stroke="#e5e7eb"/>
    <text x="942" y="189" font-size="14">Read by Fluxy AI</text>
    <text x="942" y="235" font-size="11" fill="#6b7280">Merchant</text><text x="942" y="258" font-size="14">Kopi Ruang</text>
    <text x="942" y="300" font-size="11" fill="#6b7280">Total amount</text><text x="942" y="323" font-size="17">Rp277.500</text>
    <text x="942" y="365" font-size="11" fill="#6b7280">Suggested category</text><text x="942" y="388" font-size="14">Operations</text>
    <path d="m942 434 5 5 10-12" stroke="#16a34a" stroke-width="2" fill="none"/>
    <text x="966" y="437" font-size="12">Ready for your review</text>
  </g>
</svg>
