<svg xmlns="http://www.w3.org/2000/svg" width="1200" height="630" viewBox="0 0 1200 630" role="img" aria-labelledby="title desc">
  <title id="title">Retail &amp; Franchise Finance OS</title>
  <desc id="desc">Compare outlet profit, POS settlement, supplier cost, receipts, and budgets.</desc>
  <defs>
    <linearGradient id="bg" x1="0" y1="0" x2="1" y2="1">
      <stop offset="0" stop-color="#0B0F19"/>
      <stop offset="0.62" stop-color="#111827"/>
      <stop offset="1" stop-color="#1F2937"/>
    </linearGradient>
    <radialGradient id="glow" cx="0.78" cy="0.18" r="0.76">
      <stop offset="0" stop-color="#EA580C" stop-opacity="0.34"/>
      <stop offset="0.48" stop-color="#7C3AED" stop-opacity="0.15"/>
      <stop offset="1" stop-color="#0B0F19" stop-opacity="0"/>
    </radialGradient>
    <pattern id="grid" width="44" height="44" patternUnits="userSpaceOnUse">
      <path d="M 44 0 L 0 0 0 44" fill="none" stroke="#FFFFFF" stroke-opacity="0.055" stroke-width="1"/>
    </pattern>
  </defs>
  <rect width="1200" height="630" fill="url(#bg)"/>
  <rect width="1200" height="630" fill="url(#glow)"/>
  <rect width="1200" height="630" fill="url(#grid)"/>
  <circle cx="1008" cy="136" r="214" fill="#EA580C" opacity="0.13"/>
  <circle cx="1110" cy="505" r="190" fill="#7C3AED" opacity="0.11"/>
  <g transform="translate(84 110)">
    <rect x="0" y="0" width="58" height="58" rx="12" fill="#FFFFFF"/>
    <g transform="translate(2 0)">
      <path d="M 10 9 L 48 9 L 39 18 L 19 18 L 19 49 L 10 49 Z" fill="#0B0F19"/>
      <path d="M 25 27 L 39 27 L 30 36 L 25 36 Z" fill="#0B0F19"/>
    </g>
    <text x="78" y="39" fill="#FFFFFF" font-family="Inter, Arial, sans-serif" font-size="32" font-weight="800" letter-spacing="0">FluxyOS</text>
  </g>
  <g transform="translate(84 230)">
    <text x="0" y="0" fill="#FDBA74" font-family="Inter, Arial, sans-serif" font-size="22" font-weight="800" letter-spacing="3">RETAIL &amp; FRANCHISE FINANCE OS</text>
    <text x="0" y="82" fill="#FFFFFF" font-family="Inter, Arial, sans-serif" font-size="54" font-weight="850" letter-spacing="0">Know which outlets</text>
    <text x="0" y="148" fill="#FFFFFF" font-family="Inter, Arial, sans-serif" font-size="54" font-weight="850" letter-spacing="0">are actually profitable</text>
    <text x="0" y="230" fill="#D1D5DB" font-family="Inter, Arial, sans-serif" font-size="25" font-weight="500" letter-spacing="0">POS revenue, supplier costs, receipts, budgets,</text>
    <text x="0" y="266" fill="#D1D5DB" font-family="Inter, Arial, sans-serif" font-size="25" font-weight="500" letter-spacing="0">settlement, and branch-level P&amp;L in one view.</text>
  </g>
  <g transform="translate(810 188)" opacity="0.96">
    <rect x="0" y="0" width="330" height="346" rx="26" fill="#FFFFFF" fill-opacity="0.08" stroke="#FFFFFF" stroke-opacity="0.18"/>
    <rect x="30" y="32" width="270" height="52" rx="16" fill="#FFFFFF" fill-opacity="0.14"/>
    <rect x="50" y="52" width="122" height="12" rx="6" fill="#FFFFFF" fill-opacity="0.56"/>
    <rect x="218" y="50" width="54" height="16" rx="8" fill="#EA580C" fill-opacity="0.85"/>
    <g transform="translate(32 112)">
      <rect x="0" y="0" width="266" height="48" rx="14" fill="#FFFFFF" fill-opacity="0.13"/>
      <rect x="18" y="14" width="96" height="10" rx="5" fill="#FFFFFF" fill-opacity="0.42"/>
      <rect x="18" y="30" width="136" height="8" rx="4" fill="#FFFFFF" fill-opacity="0.2"/>
      <rect x="202" y="16" width="42" height="16" rx="8" fill="#16A34A" fill-opacity="0.85"/>
    </g>
    <g transform="translate(32 178)">
      <rect x="0" y="0" width="266" height="48" rx="14" fill="#FFFFFF" fill-opacity="0.13"/>
      <rect x="18" y="14" width="112" height="10" rx="5" fill="#FFFFFF" fill-opacity="0.42"/>
      <rect x="18" y="30" width="154" height="8" rx="4" fill="#FFFFFF" fill-opacity="0.2"/>
      <rect x="202" y="16" width="42" height="16" rx="8" fill="#EA580C" fill-opacity="0.85"/>
    </g>
    <g transform="translate(32 244)">
      <rect x="0" y="0" width="266" height="48" rx="14" fill="#FFFFFF" fill-opacity="0.13"/>
      <rect x="18" y="14" width="106" height="10" rx="5" fill="#FFFFFF" fill-opacity="0.42"/>
      <rect x="18" y="30" width="128" height="8" rx="4" fill="#FFFFFF" fill-opacity="0.2"/>
      <rect x="202" y="16" width="42" height="16" rx="8" fill="#3B82F6" fill-opacity="0.85"/>
    </g>
    <path d="M54 314 C112 282 160 334 270 288" fill="none" stroke="#EA580C" stroke-width="5" stroke-linecap="round"/>
    <circle cx="270" cy="288" r="8" fill="#EA580C"/>
  </g>
  <text x="84" y="574" fill="#9CA3AF" font-family="Inter, Arial, sans-serif" font-size="22" font-weight="600" letter-spacing="0">https://fluxyos.com/use-cases/retail-franchises</text>
</svg>
