<svg xmlns="http://www.w3.org/2000/svg" width="1200" height="630" viewBox="0 0 1200 630" role="img" aria-labelledby="title desc">
  <title id="title">Finance OS for Tech Startups and SaaS</title>
  <desc id="desc">Track burn, runway, subscriptions, cloud bills, and finance risks in FluxyOS.</desc>
  <defs>
    <linearGradient id="bg" x1="0" y1="0" x2="1" y2="1">
      <stop offset="0" stop-color="#0B0F19"/>
      <stop offset="0.56" stop-color="#111827"/>
      <stop offset="1" stop-color="#1F2937"/>
    </linearGradient>
    <radialGradient id="glow" cx="0.8" cy="0.18" r="0.68">
      <stop offset="0" stop-color="#EA580C" stop-opacity="0.44"/>
      <stop offset="0.46" stop-color="#7C3AED" stop-opacity="0.2"/>
      <stop offset="1" stop-color="#0B0F19" stop-opacity="0"/>
    </radialGradient>
    <pattern id="grid" width="44" height="44" patternUnits="userSpaceOnUse">
      <path d="M 44 0 L 0 0 0 44" fill="none" stroke="#FFFFFF" stroke-opacity="0.055" stroke-width="1"/>
    </pattern>
  </defs>
  <rect width="1200" height="630" fill="url(#bg)"/>
  <rect width="1200" height="630" fill="url(#glow)"/>
  <rect width="1200" height="630" fill="url(#grid)"/>
  <circle cx="1020" cy="126" r="214" fill="#EA580C" opacity="0.12"/>
  <circle cx="1100" cy="510" r="184" fill="#7C3AED" opacity="0.11"/>
  <g transform="translate(84 94)">
    <rect x="0" y="0" width="58" height="58" rx="12" fill="#FFFFFF"/>
    <g transform="translate(2 0)">
      <path d="M 10 9 L 48 9 L 39 18 L 19 18 L 19 49 L 10 49 Z" fill="#0B0F19"/>
      <path d="M 25 27 L 39 27 L 30 36 L 25 36 Z" fill="#0B0F19"/>
    </g>
    <text x="78" y="39" fill="#FFFFFF" font-family="Inter, Arial, sans-serif" font-size="32" font-weight="800" letter-spacing="0">FluxyOS</text>
  </g>
  <g transform="translate(84 206)">
    <text x="0" y="0" fill="#FDBA74" font-family="Inter, Arial, sans-serif" font-size="23" font-weight="800" letter-spacing="3">TECH STARTUPS AND SAAS</text>
    <text x="0" y="84" fill="#FFFFFF" font-family="Inter, Arial, sans-serif" font-size="56" font-weight="850" letter-spacing="0">Know your burn,</text>
    <text x="0" y="150" fill="#FFFFFF" font-family="Inter, Arial, sans-serif" font-size="56" font-weight="850" letter-spacing="0">runway, and spend</text>
    <text x="0" y="232" fill="#D1D5DB" font-family="Inter, Arial, sans-serif" font-size="26" font-weight="500" letter-spacing="0">Track cloud bills, renewals, receipts,</text>
    <text x="0" y="268" fill="#D1D5DB" font-family="Inter, Arial, sans-serif" font-size="26" font-weight="500" letter-spacing="0">and startup finance risks in one view.</text>
  </g>
  <g transform="translate(825 196)" opacity="0.97">
    <rect x="0" y="0" width="292" height="296" rx="28" fill="#FFFFFF" fill-opacity="0.08" stroke="#FFFFFF" stroke-opacity="0.18"/>
    <rect x="28" y="32" width="236" height="48" rx="14" fill="#FFFFFF" fill-opacity="0.9"/>
    <text x="48" y="62" fill="#0B0F19" font-family="Inter, Arial, sans-serif" font-size="18" font-weight="800" letter-spacing="0">Runway pressure</text>
    <g transform="translate(28 108)">
      <rect width="108" height="70" rx="18" fill="#FFFFFF" fill-opacity="0.12" stroke="#FFFFFF" stroke-opacity="0.16"/>
      <text x="18" y="28" fill="#D1D5DB" font-family="Inter, Arial, sans-serif" font-size="14" font-weight="600">Burn</text>
      <text x="18" y="54" fill="#FFFFFF" font-family="Inter, Arial, sans-serif" font-size="24" font-weight="850">Rp 91M</text>
    </g>
    <g transform="translate(156 108)">
      <rect width="108" height="70" rx="18" fill="#FFFFFF" fill-opacity="0.12" stroke="#EA580C" stroke-opacity="0.52"/>
      <text x="18" y="28" fill="#FDBA74" font-family="Inter, Arial, sans-serif" font-size="14" font-weight="600">Runway</text>
      <text x="18" y="54" fill="#FFFFFF" font-family="Inter, Arial, sans-serif" font-size="24" font-weight="850">7.4 mo</text>
    </g>
    <g transform="translate(28 205)">
      <rect x="0" y="54" width="28" height="20" rx="7" fill="#FFFFFF" fill-opacity="0.2"/>
      <rect x="42" y="44" width="28" height="30" rx="7" fill="#FFFFFF" fill-opacity="0.28"/>
      <rect x="84" y="28" width="28" height="46" rx="7" fill="#FFFFFF" fill-opacity="0.36"/>
      <rect x="126" y="12" width="28" height="62" rx="7" fill="#EA580C" fill-opacity="0.9"/>
      <rect x="168" y="34" width="28" height="40" rx="7" fill="#FFFFFF" fill-opacity="0.26"/>
      <rect x="210" y="20" width="28" height="54" rx="7" fill="#7C3AED" fill-opacity="0.68"/>
    </g>
  </g>
  <text x="84" y="574" fill="#9CA3AF" font-family="Inter, Arial, sans-serif" font-size="22" font-weight="600" letter-spacing="0">https://fluxyos.com/use-cases/tech-startups-saas</text>
</svg>
