<svg xmlns="http://www.w3.org/2000/svg" width="1200" height="630" viewBox="0 0 1200 630" role="img" aria-labelledby="title desc">
  <title id="title">Vendor Spend - Control invoices, SaaS, and supplier payments</title>
  <desc id="desc">Centralize approvals, catch duplicates, and keep every payment audit-ready.</desc>
  <defs>
    <linearGradient id="bg" x1="0" y1="0" x2="1" y2="1">
      <stop offset="0" stop-color="#0B0F19"/>
      <stop offset="0.55" stop-color="#111827"/>
      <stop offset="1" stop-color="#1F2937"/>
    </linearGradient>
    <radialGradient id="glow" cx="0.78" cy="0.25" r="0.68">
      <stop offset="0" stop-color="#7C3AED" stop-opacity="0.5"/>
      <stop offset="0.5" stop-color="#EA580C" stop-opacity="0.16"/>
      <stop offset="1" stop-color="#0B0F19" stop-opacity="0"/>
    </radialGradient>
    <pattern id="grid" width="44" height="44" patternUnits="userSpaceOnUse">
      <path d="M 44 0 L 0 0 0 44" fill="none" stroke="#FFFFFF" stroke-opacity="0.055" stroke-width="1"/>
    </pattern>
  </defs>
  <rect width="1200" height="630" fill="url(#bg)"/>
  <rect width="1200" height="630" fill="url(#glow)"/>
  <rect width="1200" height="630" fill="url(#grid)"/>
  <circle cx="1010" cy="120" r="220" fill="#7C3AED" opacity="0.12"/>
  <circle cx="1110" cy="520" r="190" fill="#EA580C" opacity="0.14"/>
  <g transform="translate(84 110)">
    <rect x="0" y="0" width="58" height="58" rx="12" fill="#FFFFFF"/>
    <g transform="translate(2 0)">
      <path d="M 10 9 L 48 9 L 39 18 L 19 18 L 19 49 L 10 49 Z" fill="#0B0F19"/>
      <path d="M 25 27 L 39 27 L 30 36 L 25 36 Z" fill="#0B0F19"/>
    </g>
    <text x="78" y="39" fill="#FFFFFF" font-family="Inter, Arial, sans-serif" font-size="32" font-weight="800" letter-spacing="0">FluxyOS</text>
  </g>
  <g transform="translate(84 230)">
    <text x="0" y="0" fill="#FDBA74" font-family="Inter, Arial, sans-serif" font-size="23" font-weight="800" letter-spacing="3">VENDOR SPEND</text>
    <text x="0" y="84" fill="#FFFFFF" font-family="Inter, Arial, sans-serif" font-size="56" font-weight="850" letter-spacing="0">Control invoices, SaaS,</text>
    <text x="0" y="150" fill="#FFFFFF" font-family="Inter, Arial, sans-serif" font-size="56" font-weight="850" letter-spacing="0">and supplier payments</text>
    <text x="0" y="232" fill="#D1D5DB" font-family="Inter, Arial, sans-serif" font-size="26" font-weight="500" letter-spacing="0">Centralize approvals, catch duplicates,</text>
    <text x="0" y="268" fill="#D1D5DB" font-family="Inter, Arial, sans-serif" font-size="26" font-weight="500" letter-spacing="0">and keep every payment audit-ready.</text>
  </g>
  <g transform="translate(850 252)" opacity="0.95">
    <rect x="0" y="0" width="270" height="210" rx="22" fill="#FFFFFF" fill-opacity="0.08" stroke="#FFFFFF" stroke-opacity="0.18"/>
    <rect x="28" y="34" width="214" height="20" rx="10" fill="#FFFFFF" fill-opacity="0.75"/>
    <rect x="28" y="74" width="154" height="14" rx="7" fill="#EA580C"/>
    <rect x="28" y="113" width="214" height="14" rx="7" fill="#FFFFFF" fill-opacity="0.28"/>
    <rect x="28" y="145" width="184" height="14" rx="7" fill="#FFFFFF" fill-opacity="0.2"/>
    <circle cx="218" cy="162" r="42" fill="#EA580C" fill-opacity="0.22" stroke="#FDBA74" stroke-opacity="0.7"/>
    <path d="M200 162 L214 176 L239 148" fill="none" stroke="#FDBA74" stroke-width="8" stroke-linecap="round" stroke-linejoin="round"/>
  </g>
  <text x="84" y="574" fill="#9CA3AF" font-family="Inter, Arial, sans-serif" font-size="22" font-weight="600" letter-spacing="0">https://fluxyos.com</text>
</svg>
